<svg viewBox="0 0 352 424" width="352" height="424" xmlns="http://www.w3.org/2000/svg" fill-rule="evenodd" clip-rule="evenodd" stroke-miterlimit="10"><clipPath id="a"><path d="M287.005 358.235H316V234.67H.01v123.565h28.995v-99h258v99z"/></clipPath><g clip-path="url(#a)"><path fill="#52261a" fill-rule="nonzero" d="M0 234.5h316v124H0z"/></g><clipPath id="b"><path d="M.01 219.5H316v16.752H.01z"/></clipPath><g clip-path="url(#b)"><path fill="#6f3e30" fill-rule="nonzero" d="M-4.99 214.5H321v26.752H-4.99z"/></g><clipPath id="c"><path d="M19.43 211.896h122.23v7.8H19.43z"/></clipPath><g clip-path="url(#c)"><path fill="#afbfcd" fill-rule="nonzero" d="M14.43 206.896h132.23v17.8H14.43z"/></g><clipPath id="d"><path d="M23.04 154.537c0-3.796 3.078-6.874 6.873-6.874h100.242c3.797 0 6.874 3.072 6.874 6.874v65.16H23.04v-65.16z"/></clipPath><g clip-path="url(#d)"><path fill="#cdd9e4" fill-rule="nonzero" d="M18.04 142.663h123.99v82.033H18.04z"/></g><clipPath id="e"><path d="M86.307 189.178c-1.303 1.98-3.534 3.287-6.068 3.287-4.02 0-7.277-3.286-7.277-7.34 0-4.055 3.258-7.342 7.276-7.342 2.807 0 5.243 1.604 6.456 3.953-1.72.38-3.01 1.925-3.01 3.775 0 1.708 1.098 3.157 2.62 3.668z"/></clipPath><g clip-path="url(#e)"><path fill="#fff" fill-rule="nonzero" d="M67.963 172.783h23.734v24.682H67.963z"/></g><clipPath id="f"><path d="M80.18 175.977s.133-1.755 1.295-2.92c1.162-1.164 2.914-1.298 2.914-1.298s-.134 1.755-1.296 2.92c-1.162 1.164-2.914 1.297-2.914 1.297z"/></clipPath><g clip-path="url(#f)"><path fill="#fff" fill-rule="nonzero" d="M75.18 166.76h14.208v14.217H75.18z"/></g><clipPath id="g"><path d="M226.784 412.99l-8.753-136.53h103.884l-8.752 136.74-26.028-.046-7.032-109.128h-20.258l-7.032 109.006-26.028-.042z"/></clipPath><g clip-path="url(#g)"><path fill="#690f2a" fill-rule="nonzero" d="M213.032 271.46h113.883V418.2H213.032z"/></g><clipPath id="h"><path d="M330.647 88.196c-8.095 0-14.657-6.654-14.657-14.863 0-8.208 6.562-14.863 14.657-14.863 8.095 0 10.077 6.655 10.077 14.863 0 8.21-1.982 14.863-10.077 14.863z"/></clipPath><g clip-path="url(#h)"><path fill="#f5bea0" fill-rule="nonzero" d="M310.99 53.47h34.733v39.726H310.99z"/></g><clipPath id="i"><path d="M358.812 41.379l-48.972-.002v64.9h48.972v-64.9zM329.84 61.377c5.172 0 8.972 5.708 8.972 12.45 0 6.743-3.8 12.45-8.972 12.45v-4.09c2.478 0 4.88-3.61 4.88-8.36s-2.402-8.357-4.88-8.357V61.38z"/></clipPath><g clip-path="url(#i)"><clipPath id="j"><path d="M329.84 63.425c3.825 0 6.926 4.658 6.926 10.404 0 5.745-3.1 10.403-6.926 10.403V63.425z"/></clipPath><g clip-path="url(#j)"><path d="M329.84 63.425c3.825 0 6.926 4.658 6.926 10.404 0 5.745-3.1 10.403-6.926 10.403" fill="#f5bea0"/></g></g><clipPath id="k"><path d="M329.84 63.425c3.825 0 6.926 4.658 6.926 10.404 0 5.745-3.1 10.403-6.926 10.403V63.425z"/></clipPath><g clip-path="url(#k)"><path d="M329.88 88.325l-.08-8.184H329.886l.012-.002h.01l.013-.003h.01l.013-.003.012-.002.012-.003.012-.003.012-.003.013-.002.014-.004.013-.004.015-.005.015-.005.016-.006.015-.006.018-.007.017-.006.018-.008.02-.008.02-.01.02-.01.02-.01.02-.012.023-.012.024-.014.023-.014.024-.015.026-.015.025-.017.027-.017.026-.018.027-.02.028-.02.027-.022.03-.023.028-.024.03-.026.03-.026.03-.026.03-.028.03-.03.033-.03.03-.032.033-.033.032-.033.032-.036.033-.035.033-.037.033-.04.034-.04.033-.04.034-.042.034-.044.033-.044.035-.046.034-.047.033-.048.034-.05.033-.05.035-.05.033-.053.034-.053.033-.054.034-.056.032-.057.033-.058.033-.06.032-.06.032-.06.033-.062.03-.063.033-.064.03-.066.032-.066.03-.067.03-.068.03-.07.03-.07.03-.07.028-.073.028-.072.028-.074.028-.074.026-.075.027-.075.026-.078.026-.077.025-.08.025-.08.024-.08.022-.08.023-.082.022-.084.022-.083.02-.083.02-.085.02-.086.02-.086.017-.087.018-.088.017-.088.016-.09.016-.09.015-.09.014-.09.013-.092.013-.092.012-.092.012-.093.01-.094.01-.094.01-.096.008-.095.008-.097.007-.097.006-.096.005-.098.005-.098.004-.098.003-.1.002-.098v-.4l-.002-.098-.003-.1-.004-.097-.005-.098-.005-.098-.006-.096-.007-.095-.008-.097-.008-.095-.01-.095-.01-.094-.01-.094-.012-.093-.012-.093-.013-.092-.013-.09-.015-.092-.016-.09-.016-.09-.016-.09-.017-.088-.018-.088-.018-.086-.02-.087-.02-.085-.02-.085-.02-.084-.023-.083-.022-.083-.023-.082-.023-.08-.025-.082-.024-.08-.024-.078-.025-.078-.025-.077-.027-.077-.026-.075-.028-.074-.028-.074-.028-.072-.03-.072-.028-.07-.03-.07-.03-.07-.03-.068-.03-.067-.03-.066-.032-.066-.032-.063-.03-.063-.034-.062-.032-.06-.032-.06-.033-.06-.033-.058-.033-.057-.035-.056-.033-.053-.034-.054-.033-.052-.035-.05-.033-.05-.034-.05-.034-.048-.035-.047-.034-.045-.032-.045-.034-.043-.034-.043-.033-.04-.034-.042-.033-.038-.033-.038-.033-.036-.032-.035-.033-.034-.033-.033-.03-.03-.033-.032-.03-.028-.032-.03-.03-.026-.03-.026-.03-.025-.028-.024-.03-.022-.026-.022-.028-.02-.027-.02-.026-.02-.026-.017-.024-.018-.025-.016-.023-.015-.023-.013-.023-.013-.02-.012-.022-.012-.02-.01-.02-.01-.02-.01-.02-.01-.018-.007-.017-.007-.018-.007-.016-.007-.017-.006-.015-.005-.015-.004-.014-.005-.015-.004-.013-.004-.013-.003-.013-.003-.012-.002-.012-.002-.012-.002-.01-.002h-.012l-.01-.003h-.012l-.012-.002h-.022l-.05-.002.077-8.183h.127l.167.006.167.007.167.01.166.015.164.017.165.02.163.023.163.026.162.03.16.03.16.036.16.038.157.04.156.044.155.046.154.05.153.05.15.055.15.055.15.06.147.06.146.064.144.065.142.068.142.07.14.073.137.074.137.077.135.08.133.08.132.08.13.085.13.086.126.088.126.09.124.09.122.093.12.094.12.096.118.097.116.1.115.1.113.102.11.102.11.104.11.106.107.107.106.108.103.11.103.11.1.113.1.114.098.115.097.114.095.117.094.12.093.118.09.12.09.12.09.124.086.123.086.124.084.125.082.125.082.128.08.128.08.13.077.13.077.13.075.132.073.132.073.134.07.134.07.136.07.136.067.137.066.138.065.138.065.14.062.14.06.142.06.142.06.142.057.143.056.144.054.145.054.146.052.146.05.148.05.148.05.148.046.15.046.15.045.15.043.152.042.152.04.152.04.154.04.155.036.154.036.155.034.156.033.157.033.157.03.158.03.16.028.158.027.16.026.16.024.16.022.162.02.162.02.162.02.163.017.163.016.164.014.165.014.163.013.166.01.165.01.166.007.168.006.167.005.168.005.168.002.17v.337l-.002.17-.004.168-.004.167-.006.167-.008.166-.01.166-.01.167-.01.164-.015.165-.014.163-.016.164-.018.164-.02.164-.02.162-.02.162-.023.16-.024.162-.026.16-.026.16-.027.158-.03.16-.03.157-.032.157-.032.157-.034.155-.036.155-.037.155-.037.154-.04.153-.04.152-.043.152-.043.152-.045.15-.046.15-.047.15-.05.148-.05.148-.05.147-.052.147-.054.145-.054.145-.056.145-.058.143-.058.142-.06.142-.06.142-.063.14-.064.14-.064.14-.066.136-.067.137-.07.137-.07.135-.07.133-.073.134-.073.133-.075.132-.077.13-.077.13-.08.13-.08.128-.082.127-.082.126-.085.125-.087.124-.087.124-.088.122-.09.12-.09.12-.094.12-.094.118-.095.117-.097.115-.098.115-.1.114-.1.112-.103.11-.104.11-.106.108-.107.107-.11.106-.11.106-.11.103-.113.1-.115.1-.116.1-.118.097-.12.096-.12.095-.122.093-.124.092-.126.09-.127.087-.13.085-.13.084-.132.08-.133.082-.135.078-.137.077-.138.075-.14.072-.14.07-.143.068-.144.066-.147.064-.146.06-.148.06-.15.057-.15.053-.154.05-.154.05-.155.046-.156.043-.158.04-.16.038-.16.037-.16.032-.162.028-.163.026-.163.024-.164.02-.165.017-.166.015-.166.01-.166.01-.167.003-.128.002z" fill="#d08e6a"/></g><clipPath id="l"><path d="M210.31 88.196c8.096 0 14.658-6.654 14.658-14.863 0-8.208-6.562-14.863-14.657-14.863-8.094 0-10.076 6.655-10.076 14.863 0 8.21 1.982 14.863 10.077 14.863z"/></clipPath><g clip-path="url(#l)"><path fill="#f5bea0" fill-rule="nonzero" d="M195.234 53.47h34.734v39.726h-34.734z"/></g><clipPath id="m"><path d="M182.145 41.379l48.971-.002v64.9h-48.97v-64.9zm28.972 19.998c-5.172 0-8.972 5.708-8.972 12.45 0 6.743 3.8 12.45 8.972 12.45v-4.09c-2.478 0-4.88-3.61-4.88-8.36s2.402-8.357 4.88-8.357V61.38z"/></clipPath><g clip-path="url(#m)"><clipPath id="n"><path d="M211.117 63.425c-3.825 0-6.926 4.658-6.926 10.404 0 5.745 3.102 10.403 6.927 10.403V63.425z"/></clipPath><g clip-path="url(#n)"><path d="M211.117 63.425c-3.825 0-6.926 4.658-6.926 10.404 0 5.745 3.102 10.403 6.927 10.403" fill="#f5bea0"/></g></g><clipPath id="o"><path d="M211.117 63.425c-3.825 0-6.926 4.658-6.926 10.404 0 5.745 3.102 10.403 6.927 10.403V63.425z"/></clipPath><g clip-path="url(#o)"><path d="M211.078 88.325l-.128-.002-.167-.004-.167-.01-.166-.01-.166-.015-.165-.017-.165-.02-.163-.024-.163-.026-.163-.03-.16-.03-.16-.037-.16-.037-.157-.04-.156-.044-.155-.047-.155-.05-.153-.05-.15-.054-.15-.058-.15-.06-.147-.06-.146-.064-.145-.066-.142-.068-.142-.07-.138-.072-.138-.075-.137-.077-.135-.078-.134-.08-.13-.083-.13-.085-.13-.086-.127-.09-.125-.088-.124-.09-.12-.094-.122-.095-.12-.095-.117-.098-.115-.1-.115-.1-.113-.1-.11-.104-.11-.105-.11-.105-.107-.107-.105-.108-.105-.11-.102-.11-.1-.113-.1-.114-.1-.114-.096-.117-.095-.117-.094-.118-.093-.12-.09-.12-.09-.12-.09-.122-.086-.124-.086-.124-.085-.125-.082-.126-.08-.127-.082-.13-.08-.128-.076-.13-.077-.13-.075-.132-.074-.133-.072-.134-.07-.134-.07-.137-.07-.136-.067-.137-.066-.138-.064-.138-.064-.14-.062-.14-.06-.14-.06-.143-.06-.142-.057-.144-.056-.144-.054-.145-.054-.146-.053-.147-.05-.147-.05-.148-.05-.15-.046-.148-.045-.15-.045-.15-.043-.153-.042-.152-.04-.153-.04-.153-.04-.155-.036-.155-.037-.155-.034-.156-.034-.158-.032-.157-.03-.158-.03-.158-.028-.16-.026-.16-.026-.16-.024-.16-.022-.162-.022-.162-.02-.162-.018-.163-.018-.163-.016-.164-.014-.164-.014-.166-.012-.166-.01-.166-.01-.166-.007-.167-.006-.168-.004-.168-.004-.168-.002-.168v-.338l.002-.17.004-.167.005-.168.007-.167.008-.167.01-.165.01-.166.01-.167.015-.164.014-.166.016-.164.018-.163.018-.163.02-.163.022-.16.022-.162.024-.16.026-.16.026-.16.028-.16.03-.158.03-.158.032-.157.033-.157.033-.155.036-.156.036-.155.038-.154.04-.153.04-.153.043-.152.043-.15.045-.152.046-.15.048-.15.048-.148.05-.148.05-.148.053-.146.053-.146.054-.145.056-.144.058-.144.06-.144.06-.14.06-.142.062-.14.064-.14.065-.14.067-.137.067-.137.07-.136.07-.136.07-.134.072-.134.074-.132.075-.132.077-.13.077-.13.078-.13.08-.128.083-.128.083-.126.085-.125.086-.125.087-.123.09-.123.09-.122.09-.12.093-.12.094-.117.095-.116.097-.115.097-.116.1-.113.1-.11.103-.112.104-.11.106-.11.107-.106.11-.106.11-.104.11-.104.113-.1.115-.102.116-.1.12-.096.118-.096.12-.094.123-.093.125-.09.126-.09.128-.09.13-.085.13-.084.13-.082.134-.08.135-.08.137-.076.138-.074.14-.073.14-.07.143-.068.144-.066.145-.065.147-.06.15-.06.15-.056.15-.055.153-.052.154-.05.154-.045.156-.043.158-.04.16-.04.16-.034.16-.03.16-.03.164-.027.163-.024.165-.02.164-.018.166-.014.166-.01.167-.01.167-.004h.128l.078 8.182h-.062l-.01.002h-.023l-.01.003-.013.002-.01.002-.013.002-.01.002-.014.002-.012.003-.013.003-.013.003-.014.003-.014.005-.015.004-.016.005-.016.006-.017.006-.016.006-.017.007-.018.008-.02.01-.02.01-.02.01-.02.01-.022.01-.022.014-.023.013-.023.014-.024.016-.025.016-.024.017-.026.017-.026.018-.027.02-.027.02-.028.023-.03.023-.028.025-.03.025-.03.026-.03.027-.03.03-.03.028-.032.032-.032.032-.032.032-.033.034-.032.036-.033.036-.033.038-.033.04-.034.038-.033.04-.034.044-.033.043-.034.045-.034.045-.034.047-.034.048-.034.05-.034.05-.033.05-.034.053-.035.054-.033.054-.034.057-.033.057-.033.058-.032.06-.033.06-.032.06-.033.062-.03.064-.033.064-.032.065-.03.066-.032.067-.03.068-.03.07-.03.07-.028.07-.03.072-.027.073-.027.074-.027.074-.027.076-.028.077-.026.077-.025.078-.024.08-.024.078-.024.08-.023.082-.023.082-.022.083-.022.083-.02.084-.02.085-.02.086-.02.087-.018.087-.018.088-.017.09-.016.088-.017.09-.015.09-.015.09-.013.092-.013.092-.012.093-.012.093-.01.094-.01.094-.01.095-.008.096-.008.095-.007.096-.006.098-.005.097-.006.098-.004.098-.003.1-.002.1v.398l.002.1.003.098.004.098.005.098.004.098.006.096.007.097.008.096.008.094.01.095.01.093.01.094.012.093.012.093.013.092.013.092.015.09.015.09.016.09.015.09.017.088.018.088.018.087.02.086.02.086.02.085.02.084.022.085.022.082.023.082.023.08.024.08.024.08.025.08.026.077.026.078.027.076.026.076.027.075.028.075.03.072.028.072.03.07.028.07.03.07.03.067.03.067.032.067.03.066.033.064.032.063.033.062.032.06.033.06.032.06.033.058.033.057.034.056.033.055.034.054.033.053.033.05.034.05.034.05.034.048.034.047.034.046.034.044.033.044.034.042.033.04.034.04.033.04.033.037.033.036.033.037.032.034.032.034.032.032.03.03.032.03.03.028.03.027.03.028.03.025.03.023.028.023.028.02.027.022.027.02.026.02.026.016.025.017.026.016.024.016.023.014.023.013.022.013.02.01.022.012.02.01.02.01.02.008.017.008.017.007.018.008.016.006.016.006.015.005.014.005.014.004.014.004.013.003.013.004.012.003.012.003.013.002.01.002h.012l.012.003h.01l.01.002h.086l-.078 8.185z" fill="#d08e6a"/></g><clipPath id="p"><path d="M270.468 181.338c95.702 0 64.34-73.555 64.34-111.547 0-37.99-26.452-68.79-64.34-68.79-37.888 0-64.34 30.8-64.34 68.79 0 37.993-31.362 111.548 64.34 111.548z"/></clipPath><g clip-path="url(#p)"><path fill="#675446" fill-rule="nonzero" d="M196.213-4h148.51v190.338h-148.51z"/></g><clipPath id="q"><path d="M320 275.47c4.625-9.67 9.07-30.1 9.07-42.946 0-21.484-1.712-40.274-13.09-50.52V149.63c22.7 12.904 34.626 46.01 34.626 84.817 0 11.445-5.042 28.97-7.606 39.053 0 0-15.535 1.97-22.166 1.97H320z"/></clipPath><g clip-path="url(#q)"><path fill="#ffc8aa" fill-rule="nonzero" d="M310.98 144.63h44.627v135.84H310.98z"/></g><clipPath id="r"><path d="M224.222 148.002s37.32-4.426 46.246-4.316c8.928-.11 46.247 4.316 46.247 4.316l6.026 44.242c.638 4.677 1.154 12.3 1.154 17.03v68.177H217.043v-68.176c0-4.728.516-12.352 1.153-17.03l6.026-44.242z"/></clipPath><g clip-path="url(#r)"><path fill="#333" fill-rule="nonzero" d="M217 143.5h107v134H217z"/><clipPath id="s"><path d="M208.138 266.552h124.66v27.744h-124.66z"/></clipPath><g clip-path="url(#s)"><clipPath id="t"><path d="M217 143.5h107v134H217z"/></clipPath><g clip-path="url(#t)"><path fill="#292929" fill-rule="nonzero" d="M203.138 261.552h134.66v37.744h-134.66z"/></g></g><clipPath id="u"><path d="M208.138 155.575h124.66v27.744h-124.66z"/></clipPath><g clip-path="url(#u)"><clipPath id="v"><path d="M217 143.5h107v134H217z"/></clipPath><g clip-path="url(#v)"><path fill="#292929" fill-rule="nonzero" d="M203.138 150.575h134.66v37.744h-134.66z"/></g></g><clipPath id="w"><path d="M208.138 211.064h124.66v27.744h-124.66z"/></clipPath><g clip-path="url(#w)"><clipPath id="x"><path d="M217 143.5h107v134H217z"/></clipPath><g clip-path="url(#x)"><path fill="#292929" fill-rule="nonzero" d="M203.138 206.064h134.66v37.744h-134.66z"/></g></g><clipPath id="y"><path d="M269.973 166.475c21.037 0 38.09-10.203 38.09-22.79h-76.18c0 12.587 17.053 22.79 38.09 22.79z"/></clipPath><g clip-path="url(#y)"><clipPath id="z"><path d="M217 143.5h107v134H217z"/></clipPath><g clip-path="url(#z)"><path fill="#f1b595" fill-rule="nonzero" d="M226.883 138.685h86.18v32.79h-86.18z"/></g></g></g><clipPath id="A"><path d="M309.46 280.787l6.119-10.644c.107-.19.233-.36.374-.518L325.6 259.5c1.704-1.315.733 2.595 3.003 3.91l9.727 5.587c2.874 1.666 5.384.95 4.67 4.503l-2.085 7.008-3.08 13.08c-.476 1.45-2.202 2.098-3.856 1.444-1.42-.56-2.325-1.9-2.25-3.188l-.8 1.393c-.968 1.684-3.354 2.12-5.33.974-1.778-1.03-2.618-2.988-2.066-4.597l-.628 1.095c-.968 1.683-3.384 2.103-5.396.936-2.013-1.167-2.86-3.478-1.89-5.162l.538-.94c-1.138 1.167-3.16 1.362-4.872.37-1.977-1.147-2.794-3.44-1.826-5.125z"/></clipPath><g clip-path="url(#A)"><path fill="#ffc8aa" fill-rule="nonzero" d="M304.053 254.234h44.07v46.054h-44.07z"/></g><clipPath id="B"><path d="M291.03 152.642c0-11.838 3.852-46.61-21.056-46.61s-21.057 34.772-21.057 46.61c0 11.838 42.113 11.838 42.113 0z"/></clipPath><g clip-path="url(#B)"><path fill="#f1b595" fill-rule="nonzero" d="M243.702 101.032h52.543v65.49h-52.543z"/></g><clipPath id="C"><path d="M271.11 139.72c23.902 0 56.74-26.345 56.74-57.264 0-30.92-21.612-54.703-56.74-54.703-35.126 0-58.025 23.784-58.025 54.703 0 30.92 34.125 57.265 58.026 57.265z"/></clipPath><g clip-path="url(#C)"><path fill="#ffc8aa" fill-rule="nonzero" d="M208.085 22.753H332.85V144.72H208.086z"/></g><clipPath id="D"><path d="M238.81 80.27c-4.92 0-8.905-3.993-8.905-8.918 0-4.926 3.986-8.918 8.904-8.918 4.917 0 8.903 3.992 8.903 8.918 0 4.925-3.986 8.917-8.904 8.917z"/></clipPath><g clip-path="url(#D)"><path fill="#fff" fill-rule="nonzero" d="M224.904 57.434h27.808V85.27h-27.808z"/></g><clipPath id="E"><path d="M239.303 80.27c-4.098 0-7.42-3.328-7.42-7.432 0-4.104 3.322-7.432 7.42-7.432s7.42 3.327 7.42 7.432c0 4.104-3.322 7.43-7.42 7.43z"/></clipPath><g clip-path="url(#E)"><path fill="#333" fill-rule="nonzero" d="M226.883 60.406h24.84V85.27h-24.84z"/></g><path d="M249.12 82.678l-.264-.1-.257-.094-.257-.09-.255-.09-.255-.085-.254-.083-.255-.08-.252-.076-.252-.073-.25-.07-.25-.07-.25-.065-.25-.063-.25-.062-.246-.058-.247-.055-.246-.053-.244-.05-.244-.048-.243-.045-.243-.045-.24-.04-.24-.04-.24-.035-.24-.034-.236-.032-.235-.03-.234-.027-.233-.026-.233-.023-.23-.02-.23-.02-.23-.018-.228-.017-.226-.014-.225-.013-.224-.01-.222-.008-.22-.008-.22-.005-.22-.004-.216-.002h-.215l-.214.002-.212.003-.21.004-.21.005-.207.007-.206.01-.204.008-.203.01-.2.014-.2.013-.198.015-.196.016-.194.017-.192.017-.19.02-.19.02-.185.02-.185.022-.183.023-.18.024-.18.025-.176.025-.173.026-.173.027-.17.027-.17.028-.165.03-.165.028-.162.03-.16.03-.157.03-.155.03-.152.032-.15.032-.148.032-.146.032-.143.032-.14.033-.136.03-.272.068-.26.065-.247.066-.24.065-.226.064-.217.062-.206.063-.193.06-.183.06-.17.055-.158.053-.146.05-.134.05-.12.043-.11.04-.094.037-.08.03-.127.05-.068.03-.02.01-1.273-2.966.037-.016.106-.043.16-.065.106-.04.116-.045.13-.048.143-.054.156-.056.17-.06.182-.06.195-.065.207-.066.22-.07.23-.07.245-.07.255-.073.266-.073.277-.074.29-.073.296-.073.155-.037.156-.036.16-.035.162-.035.164-.036.167-.035.17-.035.17-.035.175-.033.176-.034.18-.033.18-.032.184-.03.186-.032.19-.03.19-.03.193-.028.195-.028.197-.027.2-.026.2-.025.205-.025.206-.023.21-.022.21-.02.212-.02.214-.02.217-.017.218-.016.222-.016.222-.014.224-.012.226-.01.228-.01.23-.008.232-.006.233-.005.235-.004h.715l.242.005.244.006.245.008.246.01.248.01.25.014.252.015.252.018.255.02.256.022.256.024.258.026.26.03.26.03.264.032.264.036.265.038.266.04.268.043.27.047.27.048.27.05.272.054.273.055.274.06.274.06.276.065.277.067.278.07.278.074.28.077.28.08.28.082.283.084.283.09.283.09.284.096.285.098.285.102.286.105.28.106-1.143 3.018z" fill="#d08e6a"/><clipPath id="F"><path d="M303.117 80.27c4.918 0 8.904-3.993 8.904-8.918 0-4.926-3.985-8.918-8.903-8.918-4.918 0-8.904 3.992-8.904 8.918 0 4.925 3.986 8.917 8.904 8.917z"/></clipPath><g clip-path="url(#F)"><path fill="#fff" fill-rule="nonzero" d="M289.213 57.434h27.808V85.27h-27.807z"/></g><clipPath id="G"><path d="M302.622 80.27c4.098 0 7.42-3.328 7.42-7.432 0-4.104-3.322-7.432-7.42-7.432s-7.42 3.327-7.42 7.432c0 4.104 3.322 7.43 7.42 7.43z"/></clipPath><g clip-path="url(#G)"><path fill="#333" fill-rule="nonzero" d="M290.202 60.406h24.84V85.27h-24.84z"/></g><path d="M292.805 82.678l-1.142-3.017.28-.105.285-.105.285-.102.285-.098.284-.095.284-.092.283-.09.28-.084.282-.084.28-.08.28-.075.278-.072.278-.07.277-.068.276-.065.276-.06.274-.06.273-.056.272-.055.27-.05.27-.048.27-.046.267-.042.266-.04.265-.038.264-.036.263-.033.26-.03.26-.028.26-.026.256-.024.256-.022.255-.02.252-.017.25-.015.25-.013.25-.012.246-.01.245-.007.245-.005.242-.003.24-.002h.476l.235.004.233.004.233.006.23.008.228.01.227.01.224.012.223.014.22.015.22.015.216.017.213.02.212.02.21.02.21.022.205.023.204.025.202.025.2.026.197.027.195.028.194.028.19.03.19.03.185.03.184.032.182.032.18.033.176.034.174.033.17.035.17.034.167.034.163.036.162.035.16.036.155.037.156.037.297.073.29.073.276.074.265.073.255.072.244.07.23.07.22.07.208.065.195.065.182.062.17.058.156.056.143.053.13.047.116.044.105.042.162.065.106.044.038.017-1.273 2.965-.02-.01-.07-.028-.126-.05-.08-.03-.095-.038-.108-.04-.12-.044-.135-.048-.147-.05-.16-.054-.17-.056-.18-.06-.195-.06-.206-.062-.216-.063-.227-.065-.24-.066-.248-.067-.26-.065-.27-.067-.137-.03-.14-.034-.144-.032-.145-.032-.148-.032-.15-.032-.153-.03-.155-.032-.16-.03-.158-.03-.162-.03-.164-.03-.166-.028-.17-.028-.17-.027-.172-.027-.174-.026-.177-.025-.18-.024-.18-.023-.182-.023-.185-.022-.186-.02-.19-.02-.19-.02-.19-.017-.195-.017-.197-.016-.198-.015-.2-.013-.2-.013-.203-.01-.204-.01-.206-.008-.208-.007-.21-.006-.21-.005-.212-.003h-.646l-.218.005-.22.005-.22.007-.224.007-.224.01-.225.012-.226.013-.23.016-.228.016-.23.02-.23.02-.234.025-.234.027-.234.027-.236.03-.237.032-.24.034-.238.036-.24.04-.242.04-.242.043-.243.044-.244.048-.246.05-.246.053-.247.055-.246.058-.248.06-.25.064-.25.065-.25.07-.252.07-.252.074-.252.077-.254.08-.254.082-.255.085-.255.088-.256.09-.257.095-.265.1z" fill="#d08e6a"/><path d="M244.723 144.685l26 17.836 26-17.835" fill="none" stroke-width="1.28" stroke="#666"/><clipPath id="H"><path d="M270.713 180.31c1.64 0 2.968-3.993 2.968-8.918 0-4.925-1.328-8.918-2.967-8.918-1.64 0-2.968 3.993-2.968 8.918 0 4.925 1.33 8.918 2.968 8.918z"/></clipPath><g clip-path="url(#H)"><path fill="#dcb36b" fill-rule="nonzero" d="M262.745 157.475h15.936v27.836h-15.935z"/></g><clipPath id="I"><path d="M270.713 176.347c.273 0 .495-3.105.495-6.936 0-3.83-.222-6.935-.495-6.935s-.495 3.105-.495 6.936c0 3.832.222 6.937.495 6.937z"/></clipPath><g clip-path="url(#I)"><path fill="#cca154" fill-rule="nonzero" d="M265.218 157.475h10.99v23.872h-10.99z"/></g><clipPath id="J"><path d="M270.713 164.456c1.093 0 1.98-.887 1.98-1.982 0-1.094-.887-1.98-1.98-1.98s-1.98.886-1.98 1.98c0 1.095.887 1.982 1.98 1.982z"/></clipPath><g clip-path="url(#J)"><path fill="#cca154" fill-rule="nonzero" d="M263.734 155.493h13.957v13.963h-13.956z"/></g><clipPath id="K"><path d="M220.083 149.63c-25.175 0-45.583 20.407-45.583 45.58s20.408 45.58 45.583 45.58c24.797 0 42.86-16.243 43.46-40.894l-2.556-3.408-7.508.124c-2.676.637-6.125 2.432-9.107 6.69-3.408 9.373-14.2 15.337-24.29 15.337-12.94 0-23.43-10.49-23.43-23.43s10.49-23.43 23.43-23.43c.336 0 .67.008 1.003.022l2.99-22c-1.315-.114-2.647-.172-3.993-.172z"/></clipPath><g clip-path="url(#K)"><path fill="#ffc8aa" fill-rule="nonzero" d="M169.5 144.63h99.043v101.16H169.5z"/></g><clipPath id="L"><path d="M267.005 218.99c6.284 0 11.378-5.766 11.378-12.88 0-7.114-5.094-12.882-11.378-12.882s-11.378 5.768-11.378 12.882 5.094 12.88 11.378 12.88zm0-3.963c4.098 0 7.42-3.77 7.42-8.422 0-4.652-3.322-8.423-7.42-8.423s-7.42 3.77-7.42 8.423c0 4.65 3.322 8.422 7.42 8.422z"/></clipPath><g clip-path="url(#L)"><path fill="#fff" fill-rule="nonzero" d="M250.628 188.228h32.755v35.763h-32.755z"/></g><clipPath id="M"><path d="M270.468 186.292h35.617l-1.27 37.653h-33.076l-1.272-37.653z"/></clipPath><g clip-path="url(#M)"><path fill="#fff" fill-rule="nonzero" d="M270 185.5h37v39h-37z"/><clipPath id="N"><path d="M264.532 186.292h23.745v37.653h-23.745z"/></clipPath><g clip-path="url(#N)"><clipPath id="O"><path d="M270 185.5h37v39h-37z"/></clipPath><g clip-path="url(#O)"><path fill="#f5f5f5" fill-rule="nonzero" d="M259.532 181.292h33.745v47.653h-33.745z"/></g></g></g><clipPath id="P"><path d="M262.41 216.195c1.587-.552 3.34.232 3.916 1.743.576 1.514-.242 3.19-1.827 3.74l-23.604 8.212-2.088-5.483 23.603-8.212z"/></clipPath><g clip-path="url(#P)"><path fill="#ffc8aa" fill-rule="nonzero" d="M233.81 211.018h37.7v23.872h-37.7z"/></g><clipPath id="Q"><path d="M248.828 201.827l13.59-3.468c1.583-.552 3.334.23 3.908 1.742.576 1.513-.24 3.187-1.818 3.736l-10.324 3.595-5.346 1.862-5.082 1.77 5.072-9.238z"/></clipPath><g clip-path="url(#Q)"><path fill="#ffc8aa" fill-rule="nonzero" d="M238.755 193.182h32.755v22.88h-32.755z"/></g><clipPath id="R"><path d="M241.777 212.12l23.603-8.803c1.585-.59 3.34.248 3.914 1.868.577 1.623-.242 3.42-1.827 4.01l-23.602 8.803-2.088-5.878z"/></clipPath><g clip-path="url(#R)"><path fill="#ffc8aa" fill-rule="nonzero" d="M236.777 198.127h37.702v24.87h-37.703z"/></g><clipPath id="S"><path d="M242.766 217.47l23.603-8.21c1.584-.553 3.338.23 3.913 1.742.577 1.514-.242 3.19-1.827 3.74l-23.602 8.212-2.088-5.483z"/></clipPath><g clip-path="url(#S)"><path fill="#ffc8aa" fill-rule="nonzero" d="M237.766 204.082h37.702v23.872h-37.702z"/></g><clipPath id="T"><path d="M269.454 76.306c-2.578 0-2.922 8.076-6.06 10.7-2.76 2.307-3.81 3.77-3.81 6.78 0 1.998 2.17 5.31 10.39 5.31 8.218 0 10.388-3.312 10.388-5.31 0-3.01-1.05-4.473-3.81-6.78-3.138-2.624-3.482-10.7-6.06-10.7h-1.038z"/></clipPath><g clip-path="url(#T)"><path fill="#f1926f" fill-rule="nonzero" d="M254.585 71.306h30.777v32.79h-30.777z"/></g><clipPath id="U"><path d="M320.925 64.415c0-25.376-22.37-54.497-49.963-54.497S221 39.038 221 64.415c3.873-5.97 92.18-5.97 99.925 0z"/></clipPath><g clip-path="url(#U)"><path fill="#675446" fill-rule="nonzero" d="M216 4.918h109.925v64.498H216z"/></g><clipPath id="V"><path d="M269.973 118.913c8.47 0 15.335-3.55 15.335-7.927h-30.67c0 4.378 6.866 7.927 15.335 7.927z"/></clipPath><g clip-path="url(#V)"><path fill="#fff" fill-rule="nonzero" d="M249.638 105.986h40.67v17.927h-40.67z"/></g><clipPath id="W"><path d="M291.756 407.255c-4.654 0-8.427 3.78-8.427 8.422v8.423h34.627v-8.423c0-4.65-3.772-8.422-8.427-8.422h-17.774z"/></clipPath><g clip-path="url(#W)"><path fill="#2b2b2b" fill-rule="nonzero" d="M283 406.5h35v18h-35z"/><clipPath id="X"><path d="M300.644 396.356c6.83 0 12.367 5.333 12.367 11.91 0 6.58-24.733 6.58-24.733 0 0-6.577 5.537-11.91 12.367-11.91z"/></clipPath><g clip-path="url(#X)"><clipPath id="Y"><path d="M283 406.5h35v18h-35z"/></clipPath><g clip-path="url(#Y)"><path fill="#ffc8aa" fill-rule="nonzero" d="M283.277 391.356h34.734V418.2h-34.733z"/></g></g></g><clipPath id="Z"><path d="M230.416 407.255c-4.654 0-8.427 3.78-8.427 8.422v8.423h34.627v-8.423c0-4.65-3.772-8.422-8.427-8.422h-17.774z"/></clipPath><g clip-path="url(#Z)"><path fill="#2b2b2b" fill-rule="nonzero" d="M221 406.5h36v18h-36z"/><clipPath id="aa"><path d="M239.303 396.356c6.83 0 12.367 5.333 12.367 11.91 0 6.58-24.734 6.58-24.734 0 0-6.577 5.537-11.91 12.367-11.91z"/></clipPath><g clip-path="url(#aa)"><clipPath id="ab"><path d="M221 406.5h36v18h-36z"/></clipPath><g clip-path="url(#ab)"><path fill="#ffc8aa" fill-rule="nonzero" d="M221.936 391.356h34.734V418.2h-34.734z"/></g></g></g></svg>
